<svg height="496pt" viewBox="0 0 496 496" width="496pt" xmlns="http://www.w3.org/2000/svg"><path d="m48 296h48v64h-48zm0 0" fill="#78b75b"/><path d="m136 488h-128v-64c0-17.671875 14.328125-32 32-32h64c17.671875 0 32 14.328125 32 32zm0 0" fill="#669e4f"/><path d="m224 296h48v64h-48zm0 0" fill="#93c1fa"/><path d="m312 488h-128v-64c0-17.671875 14.328125-32 32-32h64c17.671875 0 32 14.328125 32 32zm0 0" fill="#64a5f8"/><path d="m488 488h-128v-64c0-17.671875 14.328125-32 32-32h64c17.671875 0 32 14.328125 32 32zm0 0" fill="#ed5c58"/><path d="m404 464c36.175781 0 65.671875-29.9375 67.792969-67.671875-4.671875-2.679687-10.015625-4.328125-15.792969-4.328125h-64c-17.671875 0-32 14.328125-32 32v22.839844c11.863281 10.679687 27.207031 17.160156 44 17.160156zm0 0" fill="#ef7955"/><path d="m228.207031 464c36.175781 0 65.671875-29.9375 67.792969-67.671875-4.679688-2.679687-10.015625-4.328125-15.792969-4.328125h-64c-17.671875 0-32 14.328125-32 32v22.839844c11.863281 10.679687 27.207031 17.160156 44 17.160156zm0 0" fill="#93c1fa"/><path d="m52 464c36.175781 0 65.671875-29.9375 67.792969-67.671875-4.671875-2.679687-10.015625-4.328125-15.792969-4.328125h-64c-17.671875 0-32 14.328125-32 32v22.839844c11.863281 10.679687 27.207031 17.160156 44 17.160156zm0 0" fill="#78b75b"/><path d="m400 296h48v64h-48zm0 0" fill="#ef7955"/><path d="m368 128c0 66.273438-53.726562 120-120 120s-120-53.726562-120-120 53.726562-120 120-120 120 53.726562 120 120zm0 0" fill="#c4dcfc"/><path d="m232 168c0 13.257812-10.742188 24-24 24s-24-10.742188-24-24c0-3.054688.625-5.953125 1.664062-8.640625-14.632812-2.933594-25.664062-15.855469-25.664062-31.359375s11.03125-28.425781 25.664062-31.359375c-1.039062-2.6875-1.664062-5.585937-1.664062-8.640625 0-13.257812 10.742188-24 24-24s24 10.742188 24 24zm0 0" fill="#f4b7b4"/><path d="m184 88c0 3.054688.625 5.953125 1.664062 8.640625-14.632812 2.933594-25.664062 15.855469-25.664062 31.359375s11.03125 28.425781 25.664062 31.359375c-1.039062 2.6875-1.664062 5.585937-1.664062 8.640625 0 2.144531.367188 4.175781.894531 6.152344 17.800781-7.289063 31.105469-35.894532 31.105469-70.152344 0-14.753906-2.472656-28.457031-6.703125-39.871094-.441406-.023437-.847656-.128906-1.296875-.128906-13.257812 0-24 10.742188-24 24zm0 0" fill="#f7ccd6"/><path d="m264 168c0 13.257812 10.742188 24 24 24s24-10.742188 24-24c0-3.054688-.625-5.953125-1.664062-8.640625 14.632812-2.933594 25.664062-15.855469 25.664062-31.359375s-11.03125-28.425781-25.664062-31.359375c1.039062-2.6875 1.664062-5.585937 1.664062-8.640625 0-13.257812-10.742188-24-24-24s-24 10.742188-24 24zm0 0" fill="#f2a294"/><path d="m319.640625 100.167969c-2.871094-1.617188-5.976563-2.855469-9.3125-3.527344 1.046875-2.6875 1.671875-5.585937 1.671875-8.640625 0-13.257812-10.742188-24-24-24s-24 10.742188-24 24v79.742188c29.121094-2.4375 52.566406-31.109376 55.640625-67.574219zm0 0" fill="#f4b7b4"/><path d="m192 168c-22.054688 0-40-17.945312-40-40 0-18.265625 12.335938-34.191406 30.007812-38.734375l3.984376 15.496094c-10.59375 2.71875-17.992188 12.277343-17.992188 23.238281 0 13.230469 10.769531 24 24 24 4.222656 0 8.367188-1.113281 11.992188-3.199219l8.015624 13.839844c-6.054687 3.511719-12.976562 5.359375-20.007812 5.359375zm0 0"/><path d="m208 200c-17.648438 0-32-14.351562-32-32 0-3.648438.617188-7.238281 1.824219-10.664062l15.097656 5.328124c-.617187 1.710938-.921875 3.503907-.921875 5.335938 0 8.824219 7.175781 16 16 16s16-7.175781 16-16v-80c0-8.824219-7.175781-16-16-16s-16 7.175781-16 16c0 6.777344 4.289062 12.832031 10.664062 15.089844l-5.328124 15.085937c-12.769532-4.511719-21.335938-16.640625-21.335938-30.175781 0-17.648438 14.351562-32 32-32s32 14.351562 32 32v80c0 17.648438-14.351562 32-32 32zm0 0"/><path d="m304 168c-7.03125 0-13.953125-1.847656-20.007812-5.359375l8.015624-13.839844c3.625 2.085938 7.769532 3.199219 11.992188 3.199219 13.230469 0 24-10.769531 24-24 0-10.960938-7.398438-20.519531-17.992188-23.246094l3.984376-15.496094c17.671874 4.550782 30.007812 20.476563 30.007812 38.742188 0 22.054688-17.945312 40-40 40zm0 0"/><path d="m288 200c-17.648438 0-32-14.351562-32-32v-80c0-17.648438 14.351562-32 32-32s32 14.351562 32 32c0 13.535156-8.566406 25.664062-21.335938 30.175781l-5.328124-15.085937c6.375-2.257813 10.664062-8.3125 10.664062-15.089844 0-8.824219-7.175781-16-16-16s-16 7.175781-16 16v80c0 8.824219 7.175781 16 16 16s16-7.175781 16-16c0-1.832031-.304688-3.625-.910156-5.335938l15.09375-5.328124c1.199218 3.425781 1.816406 7.015624 1.816406 10.664062 0 17.648438-14.351562 32-32 32zm0 0"/><path d="m248 256c-70.574219 0-128-57.425781-128-128s57.425781-128 128-128 128 57.425781 128 128-57.425781 128-128 128zm0-240c-61.761719 0-112 50.238281-112 112s50.238281 112 112 112 112-50.238281 112-112-50.238281-112-112-112zm0 0"/><path d="m272 368h-48c-4.425781 0-8-3.585938-8-8v-64c0-4.414062 3.574219-8 8-8h48c4.425781 0 8 3.585938 8 8v64c0 4.414062-3.574219 8-8 8zm-40-16h32v-48h-32zm0 0"/><path d="m312 496h-128c-4.425781 0-8-3.585938-8-8v-64c0-22.054688 17.945312-40 40-40h64c22.054688 0 40 17.945312 40 40v64c0 4.414062-3.574219 8-8 8zm-120-16h112v-56c0-13.230469-10.769531-24-24-24h-64c-13.230469 0-24 10.769531-24 24zm0 0"/><path d="m448 368h-48c-4.425781 0-8-3.585938-8-8v-64c0-4.414062 3.574219-8 8-8h48c4.425781 0 8 3.585938 8 8v64c0 4.414062-3.574219 8-8 8zm-40-16h32v-48h-32zm0 0"/><path d="m488 496h-128c-4.425781 0-8-3.585938-8-8v-64c0-22.054688 17.945312-40 40-40h64c22.054688 0 40 17.945312 40 40v64c0 4.414062-3.574219 8-8 8zm-120-16h112v-56c0-13.230469-10.769531-24-24-24h-64c-13.230469 0-24 10.769531-24 24zm0 0"/><path d="m96 368h-48c-4.425781 0-8-3.585938-8-8v-64c0-4.414062 3.574219-8 8-8h48c4.425781 0 8 3.585938 8 8v64c0 4.414062-3.574219 8-8 8zm-40-16h32v-48h-32zm0 0"/><path d="m136 496h-128c-4.425781 0-8-3.585938-8-8v-64c0-22.054688 17.945312-40 40-40h64c22.054688 0 40 17.945312 40 40v64c0 4.414062-3.574219 8-8 8zm-120-16h112v-56c0-13.230469-10.769531-24-24-24h-64c-13.230469 0-24 10.769531-24 24zm0 0"/><path d="m240 248h16v48h-16zm0 0"/><path d="m96 320h128v16h-128zm0 0"/><path d="m272 320h128v16h-128zm0 0"/><path d="m32 448h16v40h-16zm0 0"/><path d="m96 448h16v40h-16zm0 0"/><path d="m208 448h16v40h-16zm0 0"/><path d="m272 448h16v40h-16zm0 0"/><path d="m384 448h16v40h-16zm0 0"/><path d="m448 448h16v40h-16zm0 0"/></svg>