<svg height="512pt" viewBox="0 0 512.00093 512" width="512pt" xmlns="http://www.w3.org/2000/svg"><path d="m192 16c-80 0-176 80-176 240 0 104.480469 80 240 176 240 28.289062 0 64 0 64-80v-336c0-64-32-64-64-64zm0 0" fill="#2488ff"/><path d="m320 16c80 0 176 80 176 240 0 104.480469-80 240-176 240-28.289062 0-64 0-64-80v-336c0-64 32-64 64-64zm0 0" fill="#00d7df"/><path d="m509.96875 216.34375c-14.367188-140.816406-104.59375-216.34375-189.96875-216.34375-20.28125 0-47.144531 0-64 20.671875-16.855469-20.671875-43.71875-20.671875-64-20.671875-93.078125 0-192 89.71875-192 256 0 115.199219 88.601562 256 192 256 18.128906 0 46.398438 0 64-26.207031 17.601562 26.207031 45.871094 26.207031 64 26.207031 103.398438 0 192-140.800781 192-256 0-9.175781-.351562-18.09375-.9375-26.808594 1.5625-4.230468 1.160156-8.9375-1.09375-12.847656zm-317.96875 263.65625c-48.855469 0-94.574219-41.742188-124.535156-96h12.535156c26.5-.027344 47.972656-21.5 48-48 0-8.835938-7.164062-16-16-16s-16 7.164062-16 16-7.164062 16-16 16h-27.824219c-10.523437-25.523438-17.101562-52.496094-19.503906-80h15.328125c8.835938 0 16-7.164062 16-16s-7.164062-16-16-16h-15.632812c2.761718-63.359375 21.753906-111.335938 47.632812-145.160156v1.160156c.027344 26.5 21.5 47.972656 48 48 8.835938 0 16-7.164062 16-16s-7.164062-16-16-16-16-7.164062-16-16v-32c-.023438-.535156-.078125-1.070312-.160156-1.597656 22.644531-18.679688 50.824218-29.367188 80.160156-30.402344 32 0 48 0 48 48v66.800781c-5.132812-1.839843-10.546875-2.785156-16-2.800781h-16c-8.835938 0-16 7.164062-16 16s7.164062 16 16 16h16c8.835938 0 16 7.164062 16 16v64h-64c-8.835938 0-16-7.164062-16-16s-7.164062-16-16-16-16 7.164062-16 16c.027344 26.5 21.5 47.972656 48 48h64v96h-16c-26.5.027344-47.972656 21.5-48 48 0 8.835938 7.164062 16 16 16s16-7.164062 16-16 7.164062-16 16-16h16c0 64-21.183594 64-48 64zm80-64v-50.800781c5.132812 1.839843 10.546875 2.789062 16 2.800781h32c8.835938 0 16-7.164062 16-16s-7.164062-16-16-16h-32c-8.835938 0-16-7.164062-16-16v-80h16c26.5-.027344 47.972656-21.5 48-48 0-8.835938-7.164062-16-16-16s-16 7.164062-16 16-7.164062 16-16 16h-16v-80h16c26.5-.027344 47.972656-21.5 48-48 0-8.835938-7.164062-16-16-16s-16 7.164062-16 16-7.164062 16-16 16h-16v-16c0-48 16.039062-48 48-48 31.328125 0 68.671875 15.472656 99.414062 48h-3.414062c-8.835938 0-16 7.164062-16 16s7.164062 16 16 16h27.734375c17.453125 29.402344 28.671875 62.078125 32.953125 96h-12.6875c-8.835938 0-16-7.164062-16-16s-7.164062-16-16-16-16 7.164062-16 16c.027344 26.5 21.5 47.972656 48 48h15.632812c.222657 5.234375.367188 10.550781.367188 16-.074219 13.792969-1.414062 27.546875-4 41.097656-8.140625-5.914062-17.941406-9.097656-28-9.097656h-48c-8.835938 0-16 7.164062-16 16s7.164062 16 16 16h48c8.835938 0 16 7.164062 16 16 .011719 1.246094.167969 2.480469.472656 3.6875-11.8125 33.953125-30.078125 65.300781-53.792968 92.3125h-26.679688c-8.835938 0-16-7.164062-16-16s-7.164062-16-16-16-16 7.164062-16 16c.027344 22.800781 16.066406 42.445312 38.398438 47.03125-16.171876 10.671875-35.027344 16.554688-54.398438 16.96875-26.816406 0-48 0-48-64zm0 0" fill="#004fac"/></svg>